<svg width="74" height="74" viewBox="0 0 74 74" fill="none" xmlns="http://www.w3.org/2000/svg">
<g id="Layer_1" clip-path="url(#clip0_5014_2850)">
<path id="Vector" d="M61.0672 48.1334C55.6354 48.1334 50.9862 51.4828 49.0704 56.228C47.7288 52.9041 45.0456 50.2659 41.691 48.9825C46.5149 47.1045 49.9338 42.4145 49.9338 36.9264C49.9338 31.4384 46.6018 26.869 41.875 24.9439C45.1426 23.636 47.7523 21.0335 49.0704 17.771C50.9862 22.5172 55.6354 25.8656 61.0672 25.8656C68.2105 25.8656 74.001 20.0751 74.001 12.9318C74.001 5.78843 68.2095 0 61.0672 0C55.6354 0 50.9862 3.34942 49.0704 8.09461C47.1535 3.34942 42.5044 0 37.0725 0C37.0603 0 37.048 0 37.0358 0C37.0235 0 37.0112 0 36.999 0C31.5324 0 26.8587 3.39132 24.9654 8.18351C23.073 3.39132 18.3994 0 12.9338 0C5.79048 0 0 5.79048 0 12.9338C0 20.0771 5.79048 25.8676 12.9338 25.8676C18.4004 25.8676 23.074 22.4763 24.9674 17.6841C26.2682 20.9773 28.8819 23.6074 32.1629 24.9317C27.4166 26.8475 24.0682 31.4966 24.0682 36.9285C24.0682 42.3603 27.5045 47.129 32.3478 48.9978C28.981 50.2976 26.2937 52.9644 24.9684 56.3179C23.0751 51.5247 18.4014 48.1344 12.9348 48.1344C5.7915 48.1344 0.00102179 53.9249 0.00102179 61.0682C0.00102179 68.2116 5.7915 74.002 12.9348 74.002C18.4014 74.002 23.0751 70.6107 24.9684 65.8185C26.8618 70.6118 31.5355 74.002 37.002 74.002C37.0143 74.002 37.0266 74.002 37.0388 74.002C37.0511 74.002 37.0634 74.002 37.0756 74.002C42.5074 74.002 47.1566 70.6526 49.0724 65.9074C50.9883 70.6526 55.6374 74.002 61.0693 74.002C68.2126 74.002 74.0031 68.2116 74.0031 61.0682C74.0031 53.9249 68.2126 48.1344 61.0693 48.1344L61.0672 48.1334Z" fill="#FFE600"/>
</g>
<defs>
<clipPath id="clip0_5014_2850">
<rect width="74" height="74" fill="white"/>
</clipPath>
</defs>
</svg>
