<svg width="74" height="74" viewBox="0 0 74 74" fill="none" xmlns="http://www.w3.org/2000/svg">
<g clip-path="url(#clip0_6277_251)">
<path d="M65.698 48.9877C70.529 47.1127 73.954 42.4196 73.954 36.9265C73.954 31.4333 70.6046 26.8455 65.8594 24.9297C70.6056 23.0138 73.954 18.3647 73.954 12.9328C73.954 5.7895 68.1635 -0.000976562 61.0202 -0.000976562C53.8769 -0.000976562 48.0864 5.7895 48.0864 12.9328C48.0864 18.3647 51.4358 23.0138 56.181 24.9297C51.4348 26.8455 48.0864 31.4946 48.0864 36.9265C48.0864 42.3583 51.5227 47.127 56.366 48.9959C52.9879 50.2997 50.2945 52.9798 48.9733 56.3497C47.0891 51.5391 42.4063 48.1314 36.9264 48.1314C31.4466 48.1314 26.9241 51.4236 24.9787 56.1055C23.6258 52.85 20.9814 50.267 17.6851 48.9948C22.5284 47.126 25.9647 42.4268 25.9647 36.9255C25.9647 31.4241 22.6153 26.8445 17.8701 24.9286C22.6163 23.0128 25.9647 18.3636 25.9647 12.9318C25.9657 5.79052 20.1752 4.52265e-05 13.0319 4.52265e-05C5.88857 4.52265e-05 0.0991135 5.79052 0.0991135 12.9339C0.0991135 18.3657 3.44854 23.0148 8.19373 24.9307C3.44854 26.8465 0.0991135 31.4957 0.0991135 36.9275C0.0991135 42.3593 3.51189 47.0963 8.3286 48.9785C3.45978 50.834 0 55.5455 0 61.0673C0 68.2106 5.79048 74.0011 12.9338 74.0011C12.9502 74.0011 12.9665 74.0011 12.9829 74.0011C12.9992 74.0011 13.0155 74.0011 13.0319 74.0011C18.4177 74.0011 23.0342 70.7089 24.9797 66.027C26.9252 70.7089 31.5416 74.0011 36.9275 74.0011C42.3133 74.0011 47.0891 70.5944 48.9743 65.7838C50.8585 70.5944 55.5414 74.0011 61.0212 74.0011C61.0294 74.0011 61.0366 74.0011 61.0447 74.0011C61.0529 74.0011 61.0601 74.0011 61.0682 74.0011C68.2116 74.0011 74.002 68.2106 74.002 61.0673C74.002 55.5568 70.5545 50.8514 65.7 48.9887L65.698 48.9877Z" fill="#FFE600"/>
</g>
<defs>
<clipPath id="clip0_6277_251">
<rect width="74" height="74" fill="white"/>
</clipPath>
</defs>
</svg>
