<svg width="146" height="148" viewBox="0 0 146 148" fill="none" xmlns="http://www.w3.org/2000/svg">
<path d="M120.484 96.1671C109.767 96.1671 100.594 102.829 96.8146 112.267C94.1676 105.656 88.8737 100.409 82.2553 97.856C91.7726 94.1205 98.5181 84.7919 98.5181 73.876C98.5181 62.9602 91.944 53.8714 82.6182 50.0424C89.0652 47.441 94.214 42.2646 96.8146 35.7752C100.594 45.2156 109.767 51.8756 120.484 51.8756C134.578 51.8756 146.002 40.3582 146.002 26.1499C146.002 11.9416 134.576 0.428223 120.484 0.428223C109.767 0.428223 100.594 7.09033 96.8146 16.5287C93.0326 7.09033 83.86 0.428223 73.1431 0.428223C73.1189 0.428223 73.0948 0.428223 73.0706 0.428223C73.0464 0.428223 73.0222 0.428223 72.998 0.428223C62.2126 0.428223 52.9916 7.17366 49.256 16.7055C45.5224 7.17366 36.3014 0.428223 25.518 0.428223C11.4245 0.428223 0 11.9457 0 26.154C0 40.3623 11.4245 51.8797 25.518 51.8797C36.3034 51.8797 45.5245 45.1343 49.26 35.6024C51.8264 42.1528 56.9832 47.3841 63.4564 50.018C54.0923 53.8287 47.486 63.076 47.486 73.8801C47.486 84.6842 54.2657 94.1692 63.8213 97.8864C57.1787 100.472 51.8768 105.776 49.2621 112.446C45.5265 102.912 36.3055 96.1691 25.5201 96.1691C11.4265 96.1691 0.00201596 107.687 0.00201596 121.895C0.00201596 136.103 11.4265 147.621 25.5201 147.621C36.3055 147.621 45.5265 140.875 49.2621 131.343C52.9976 140.877 62.2186 147.621 73.004 147.621C73.0282 147.621 73.0524 147.621 73.0766 147.621C73.1008 147.621 73.125 147.621 73.1492 147.621C83.866 147.621 93.0387 140.958 96.8186 131.52C100.599 140.958 109.771 147.621 120.488 147.621C134.582 147.621 146.006 136.103 146.006 121.895C146.006 107.687 134.582 96.1691 120.488 96.1691L120.484 96.1671Z" fill="#F8F8F2"/>
<path d="M72.998 0.928223H73.1436C83.6469 0.928393 92.6413 7.45749 96.3506 16.7144L96.8145 17.8735L97.2783 16.7144C100.986 7.45738 109.981 0.928223 120.484 0.928223C134.296 0.928435 145.502 12.2142 145.502 26.1499C145.502 40.0857 134.298 51.3753 120.484 51.3755C109.981 51.3755 100.986 44.8483 97.2783 35.5894L96.8145 34.4302L96.3506 35.5894C93.8003 41.9532 88.7505 47.0285 82.4307 49.5786L81.292 50.0386L82.4287 50.5054C91.5729 54.26 98.0176 63.1703 98.0176 73.8765C98.0174 84.5816 91.4027 93.728 82.0723 97.3901L80.876 97.8599L82.0752 98.3228C88.563 100.825 93.7549 105.97 96.3506 112.454L96.8145 113.613L97.2783 112.454C100.972 103.231 109.913 96.7161 120.366 96.6675L120.369 96.6694H120.488C134.302 96.6696 145.506 107.959 145.506 121.895C145.506 135.831 134.302 147.12 120.488 147.121C109.985 147.121 100.991 140.591 97.2832 131.334L96.8184 130.175L96.3545 131.334C92.6472 140.591 83.6528 147.121 73.1494 147.121H73.0039L72.5098 147.116C62.152 146.913 53.3341 140.365 49.7275 131.161L49.2617 129.973L48.7969 131.161C45.1331 140.509 36.0912 147.12 25.5205 147.121C11.7069 147.121 0.502059 135.831 0.501953 121.895C0.501953 107.959 11.7069 96.6694 25.5205 96.6694C36.0911 96.6696 45.1331 103.278 48.7969 112.628L49.2617 113.817L49.7275 112.628C52.2917 106.087 57.4915 100.886 64.0029 98.3521L65.2002 97.8862L64.0029 97.4204C54.6363 93.7768 47.9864 84.4748 47.9863 73.8804C47.9863 63.2848 54.4642 54.217 63.6445 50.481L64.7832 50.0181L63.6445 49.5552C57.2991 46.9732 52.2422 41.8436 49.7256 35.4204L49.2598 34.2319L48.7949 35.4204C45.1311 44.7689 36.0883 51.3794 25.5176 51.3794C11.7042 51.3791 0.5 40.0896 0.5 26.1538C0.500081 12.2181 11.7042 0.928479 25.5176 0.928223C36.0864 0.928223 45.1283 7.53963 48.79 16.8882L49.2559 18.0757L49.7217 16.8882C53.3855 7.53956 62.4272 0.928223 72.998 0.928223Z" stroke="black" stroke-opacity="0.1"/>
</svg>
