<svg width="146" height="148" viewBox="0 0 146 148" fill="none" xmlns="http://www.w3.org/2000/svg">
<path d="M-1.52588e-05 26.119C-1.52588e-05 26.1028 -1.52588e-05 26.0886 -1.52588e-05 26.0723C-1.52588e-05 26.056 -1.52588e-05 26.0418 -1.52588e-05 26.0255C-1.52588e-05 11.8172 11.4244 0.299805 25.518 0.299805C36.3901 0.299805 45.6736 7.15702 49.3487 16.8128C53.046 7.20783 62.3053 0.395326 73.1431 0.395326C83.9809 0.395326 93.0024 7.03508 96.7944 16.449C100.562 6.98427 109.749 0.301837 120.482 0.301837C134.576 0.301837 146 11.8193 146 26.0276C146 26.0438 146 26.0581 146 26.0743C146 26.0906 146 26.1048 146 26.1211C146 37.0186 139.279 46.333 129.788 50.0827C139.279 53.8284 146 63.1427 146 74.0403C146 84.9379 139.505 93.9352 130.267 97.8048C139.505 101.674 146 110.857 146 121.569C146 121.602 146 121.634 146 121.667C146 121.699 146 121.732 146 121.764C146 135.973 134.576 147.49 120.482 147.49C109.727 147.49 100.528 140.783 96.7722 131.29C92.9681 140.678 83.8217 147.293 73.1431 147.293C62.4646 147.293 53.0803 140.505 49.3669 130.924C45.7059 140.609 36.4082 147.49 25.516 147.49C11.4224 147.49 -0.00202942 135.973 -0.00202942 121.764C-0.00202942 121.732 -0.00202942 121.699 -0.00202942 121.667C-0.00202942 121.634 -0.00202942 121.602 -0.00202942 121.569C-0.00202942 110.857 6.49339 101.674 15.7305 97.8048C6.49339 93.9352 -0.00202942 84.7529 -0.00202942 74.0403C-0.00202942 63.3277 6.71918 53.8284 16.2103 50.0786C6.71918 46.331 -0.00202942 37.0166 -0.00202942 26.117L-1.52588e-05 26.119ZM73.1431 95.8436C83.86 95.8436 93.0326 102.506 96.8125 111.944C99.3708 105.558 104.395 100.445 110.698 97.8048C101.461 93.9352 94.9659 84.7529 94.9659 74.0403C94.9659 63.3277 101.687 53.8284 111.18 50.0786C104.653 47.4996 99.4373 42.2886 96.8146 35.7423C93.0346 45.1827 83.862 51.8427 73.1451 51.8427C62.4283 51.8427 53.0198 45.0079 49.3326 35.3744C46.7602 42.0935 41.4724 47.4508 34.8237 50.0786C44.3149 53.8263 51.0381 63.1407 51.0381 74.0403C51.0381 84.9399 44.5427 93.9352 35.3055 97.8048C41.7284 100.496 46.8247 105.755 49.3346 112.312C53.0218 102.678 62.2932 95.8436 73.1472 95.8436H73.1431Z" fill="#F8F8F2"/>
<path d="M25.5176 0.799805C11.7042 0.80005 0.500083 12.0896 0.5 26.0254V26.3164C0.581386 36.9198 7.1469 45.9619 16.3936 49.6133L17.5713 50.0781L16.3945 50.5439C7.09164 54.2193 0.498152 63.5356 0.498047 74.04C0.498047 84.546 6.86774 93.55 15.9238 97.3438L17.0244 97.8047L15.9238 98.2656C6.86774 102.059 0.498047 111.063 0.498047 121.569V121.765L0.505859 122.416C0.848621 136.051 11.9181 146.99 25.5156 146.99C36.1911 146.99 45.3088 140.245 48.8994 130.747L49.3613 129.525L49.833 130.743C53.4745 140.138 62.6787 146.793 73.1436 146.793C83.6093 146.793 92.5775 140.309 96.3086 131.103L96.7773 129.945L97.2373 131.106C100.921 140.417 109.941 146.99 120.482 146.99C134.296 146.99 145.5 135.7 145.5 121.765V121.569L145.495 121.078C145.3 110.783 138.989 102 130.074 98.2656L128.974 97.8047L130.074 97.3438C139.132 93.5491 145.5 84.7289 145.5 74.04C145.5 63.3529 138.909 54.22 129.604 50.5479L128.426 50.083L129.604 49.6182C138.908 45.942 145.5 36.8085 145.5 26.1211V26.0273L145.492 25.376C145.149 11.7415 134.08 0.802012 120.482 0.801758C109.963 0.801758 100.954 7.351 97.2588 16.6338L96.7969 17.7939L96.3311 16.6357C92.6113 7.40127 83.7667 0.895685 73.1436 0.895508C62.5214 0.895508 53.4417 7.57205 49.8154 16.9922L49.3457 18.2119L48.8818 16.9902C45.2773 7.52012 36.1732 0.799805 25.5176 0.799805ZM49.7998 35.1953C53.4156 44.6422 62.6431 51.3428 73.1455 51.3428C83.649 51.3426 92.6433 44.8154 96.3506 35.5566L96.8145 34.3975L97.2783 35.5566C99.8504 41.9763 104.966 47.0851 111.364 49.6133L112.541 50.0791L111.364 50.5439C102.059 54.2193 95.4659 63.5356 95.4658 74.04C95.4658 84.546 101.836 93.55 110.892 97.3438L111.993 97.8047L110.892 98.2656C104.712 100.854 99.7851 105.868 97.2764 112.13L96.8125 113.289L96.3486 112.13C92.6416 102.874 83.6481 96.3447 73.1455 96.3438C62.5084 96.3444 53.418 103.043 49.8018 112.49L49.335 113.711L48.8672 112.49C46.4058 106.061 41.4084 100.903 35.1123 98.2656L34.0117 97.8047L35.1123 97.3438C44.1704 93.5491 50.5381 84.7309 50.5381 74.04C50.538 63.3508 43.9444 54.2181 34.6396 50.5439L33.4629 50.0791L34.6396 49.6133C41.1571 47.0373 46.3426 41.7843 48.8652 35.1953L49.333 33.9756L49.7998 35.1953Z" stroke="black" stroke-opacity="0.1"/>
</svg>
